<?xml version="1.0" encoding="UTF-8"?>
<svg xmlns="http://www.w3.org/2000/svg" xmlns:xlink="http://www.w3.org/1999/xlink" width="980" height="596" viewBox="0 0 980 596" font-family="Helvetica, Arial, sans-serif">
  <defs>
    <!-- ribbon gradients (vertical, so colors agree at every junction) -->
    <linearGradient id="gradL" x1="0" y1="0" x2="0" y2="1">
      <stop offset="0" stop-color="#60a5fa"/>
      <stop offset="1" stop-color="#2563eb"/>
    </linearGradient>
    <linearGradient id="gradR" x1="0" y1="0" x2="0" y2="1">
      <stop offset="0" stop-color="#fd9a21"/>
      <stop offset="1" stop-color="#fb8002"/>
    </linearGradient>
    <!-- diagonal handoffs blend one lobe color into the other -->
    <linearGradient id="gradA" gradientUnits="userSpaceOnUse" x1="463.6" y1="373.6" x2="516.4" y2="246.4">
      <stop offset="0" stop-color="#2563eb"/>
      <stop offset="1" stop-color="#fd9a21"/>
    </linearGradient>
    <linearGradient id="gradB" gradientUnits="userSpaceOnUse" x1="516.4" y1="373.6" x2="463.6" y2="246.4">
      <stop offset="0" stop-color="#fb8002"/>
      <stop offset="1" stop-color="#60a5fa"/>
    </linearGradient>
    <!-- headers, pills, badge -->
    <linearGradient id="hdrBlue" x1="0" y1="0" x2="1" y2="0">
      <stop offset="0" stop-color="#60a5fa"/>
      <stop offset="1" stop-color="#3b82f6"/>
    </linearGradient>
    <linearGradient id="hdrOrange" x1="0" y1="0" x2="1" y2="0">
      <stop offset="0" stop-color="#fd9a21"/>
      <stop offset="1" stop-color="#fb8002"/>
    </linearGradient>
    <linearGradient id="hdrSlate" x1="0" y1="0" x2="1" y2="0">
      <stop offset="0" stop-color="#64748b"/>
      <stop offset="1" stop-color="#475569"/>
    </linearGradient>
    <linearGradient id="badge" x1="0" y1="0" x2="0" y2="1">
      <stop offset="0" stop-color="#334155"/>
      <stop offset="1" stop-color="#0f172a"/>
    </linearGradient>
    <filter id="soft" x="-30%" y="-30%" width="160%" height="160%">
      <feDropShadow dx="0" dy="2" stdDeviation="3" flood-color="#0f172a" flood-opacity="0.18"/>
    </filter>
    <filter id="softBig" x="-30%" y="-30%" width="160%" height="160%">
      <feDropShadow dx="0" dy="3" stdDeviation="5" flood-color="#0f172a" flood-opacity="0.22"/>
    </filter>
    <marker id="arrowg" markerWidth="9" markerHeight="9" refX="7" refY="3" orient="auto" markerUnits="userSpaceOnUse">
      <path d="M0,0 L7,3 L0,6 Z" fill="#94a3b8"/>
    </marker>
    <style>
      /* Light values are presentation attributes on each element (below);
         this block only overrides them when the viewer prefers dark. */
      @media (prefers-color-scheme: dark) {
        .bg { fill: #0b1220; }
        .card { fill: #131f36; stroke: #24324d; }
        .ink { fill: #cbd5e1; }
        .muted { fill: #93a1b5; }
        .title { fill: #f1f5f9; }
        .sub { fill: #94a3b8; }
        .leader { stroke: #2a3a57; }
        .lobeL { fill: #93c5fd; }
        .lobeR { fill: #fdba74; }
        .annot { fill: #94a3b8; }
      }
    </style>
  </defs>

  <rect class="bg" fill="#ffffff" x="0" y="0" width="980" height="596"/>

  <!-- RSigma logo (inlined from rsigma-logo.svg) -->
  <g transform="translate(20,3) scale(0.04) translate(-53.914588,-194.29212)">
    <path class="logo" fill="#0f172a" d="M 503.00834 290.95228 C 445.50878 288.48774 364.45808 302.9678 331.62357 350.05579 C 333.9174 314.13999 331.20656 350.44476 334.1099 313.15735 C 216.48704 311.12198 164.41038 381.58482 158.26029 458.54798 C 156.58941 604.12675 159.97446 790.97481 159.56888 936.59485 C 222.0058 936.95135 260.93804 936.76923 349.51224 936.11439 C 351.26051 858.16832 350.8831 771.91189 351.45951 693.89759 C 355.31256 644.45271 341.96547 591.31345 363.93607 544.80775 C 386.28876 494.82 445.33194 469.44183 497.55326 483.65345 C 487.78502 504.44033 473.80005 550.60733 469.13724 585.47767 C 442.69725 717.88365 513.44554 866.43779 639.1392 920.09095 C 759.82234 979.81901 918.91232 940.14175 998.27982 831.52845 C 1076.3878 731.64733 1081.3431 573.55487 991.90287 479.06751 C 1047.3212 483.79057 1071.762 455.17626 1108.4908 408.60462 C 1126.0097 380.68346 1177.3451 311.70494 1131.4204 312.38001 C 1012.56 312.63356 893.68778 312.02866 774.83451 312.94837 C 728.06602 313.87516 701.91549 317.77526 650.0806 337.91517 C 616.41134 316.3851 567.61969 295.63426 526.00053 292.99915 C 518.9568 292.0011 511.22256 291.30435 503.00834 290.95228 z M 771.77006 501.97376 C 779.14412 502.27657 786.57053 503.27915 794.00053 504.99915 C 796.64053 505.55915 799.28053 506.11056 802.00053 506.69056 C 820.01053 511.89056 835.85053 521.84915 850.00053 533.99915 C 851.71053 535.45915 853.41998 536.93056 855.18998 538.44056 C 879.12998 561.13056 891.96053 592.69915 896.00053 624.99915 C 896.12053 629.74915 896.17998 634.49915 896.18998 639.24915 C 896.19998 641.72915 896.21904 644.21064 896.22904 646.77064 C 895.00904 685.04064 877.90053 720.34915 851.00053 746.99915 C 823.72053 770.44915 790.77053 781.29915 755.00053 778.99915 C 719.05053 772.67915 689.08943 755.50915 666.87943 726.24915 C 643.69943 691.77915 634.28967 651.85025 642.11967 610.62025 C 651.16967 570.97024 674.02967 539.5797 708.11967 517.8097 C 727.99467 506.4697 749.64787 501.06532 771.77006 501.97376 z"/>
    <path d="m 801.375,349.77295 h 9.52 c 8.59,0 17.17,0.01 25.75,0.02 8.98,0.02 17.96,0.02 26.94,0.02 17,0.01 33.99,0.02 50.98,0.04 19.35,0.03 38.7,0.04 58.06,0.05 39.79,0.02 77.5203,2.06286 117.3103,2.11286 l 0.047,0.034 0.013,-0.0468 c -0.65,1.98 -1.32,3.96 -2,6 -18.99,35.11 -41.04,71.04 -81,84 -18.46,4.41 -36.27,4.6 -55.2,4.61 -1.62,0 -1.62,0 -9.8,0.05 -8.53,0.04 -17.05,0.06 -25.58,0.08 -8.73,0.01 -17.46,0.06 -26.19,0.1 -17.07,0.07 -34.15,0.12 -51.23,0.16 4.48,1.76 8.96,3.52 13.44,5.29 2.49,0.98 4.99,1.96 7.55,2.97 5.34,2.09 10.71,4.11 16.08,6.11 6.12,2.32 11.98,4.91 17.93,7.63 3.79,1.6 7.58,3.18 11.38,4.75 2.09,0.87 4.19,1.74 6.34,2.64 3.96,1.64 7.92,3.28 11.88,4.9 40.27,16.81 62.8,42.59 81.4,81.71 v 2 c -6.48,2.88 -12.94,5.63 -19.52,8.26 -2.01,0.81 -4.02,1.62 -6.09,2.45 -4.18,1.68 -8.36,3.35 -12.54,5.03 -35.32,14.21 -35.32,14.21 -36.85,17.26 1.53,0.1 3.05,0.21 4.62,0.32 7,0.74 13.69,2.08 20.57,3.55 10.25,2.17 20.51,4.22 30.81,6.13 22.94,4.48 22.94,4.48 33,7 0.84,6.67 1.11,12.8 1.07,19.5 -0.01,1.97 -0.02,3.94 -0.03,5.97 -0.01,0.74 -0.01,0.74 -0.04,4.53 -1.76,0.81 -3.53,1.62 -5.35,2.45 -41.29,19.06 -41.29,19.06 -58.47,30.2 -6.35,4.11 -12.79,8.07 -19.24,12.03 -2.22,1.37 -4.43,2.73 -6.72,4.14 -5.21,3.18 -5.21,3.18 -7.22,4.18 0.9,-8.04 2.39,-15.55 4.07,-23.44 6.09,-32.03 3.72,-62.67 -6.07,-93.56 -0.66,-2.17 -1.31,-4.33 -2,-6.57 -15.04,-40.91 -45.03,-74.88 -84.18,-94.06 -39.03,-18.01 -82.3,-19.94 -122.82,-5.37 -19.1,8.05 -35.4,18.27 -51,32 -1.89,1.65 -3.79,3.3 -5.74,5 -21.2,20.18 -37.32,47.53 -44.26,76 l -3,9 c -9.59,49.8 -2.47,99.02 23,143 2.55,3.75 5.2,7.44 8,11 1.37,1.75 2.73,3.5 4.13,5.31 30.06,35.06 68.6,53.03 113.87,58.69 47.69,0.99 89.76,-15.37 124.57,-48.19 16.71,-17.68 28.52,-38.2 37.43,-60.81 73.66,-5.17 73.66,-5.17 96,-5 -12.42,61.82 -49.02,117.96 -100,155 -0.87,0.67 -0.87,0.67 -5.31,4.06 -54.72,37.88 -118.74,53.36 -184.63,43.26 -73.78,-13.86 -133.32,-56.08 -175.62,-117.39 -16.88,-26.57 -28.4,-54.64 -36.44,-84.93 -0.72,-2.66 -1.44,-5.32 -2.18,-8.07 -7.69,-37.91 -6.8,-77.16 1.18,-114.93 0.34,-0.33 0.66,-0.66 1,-1 0.26,-1.69 0.51,-3.38 0.76,-5.12 1.39,-7.67 3.62,-14.69 6.12,-22.07 0.86,-2.57 1.73,-5.14 2.62,-7.79 9.56,-26.76 23.51,-52.29 40.5,-75.02 1.63,-2.19 3.26,-4.38 4.94,-6.63 5.09,-6.41 10.48,-12.39 16.06,-18.37 l 5,-6 h 2 c 0.34,-0.66 0.34,-0.66 2,-4 3.27,-3.08 6.62,-6.06 10,-9 1.08,-0.95 1.08,-0.95 6.5,-5.75 41.2,-34.34 91.26,-57.91 144.5,-65.25 2.18,-0.35 4.36,-0.71 6.61,-1.07 13.6,-1.35 27.12,-1.19 40.77,-1.16 z" fill="#fb8002"/>
    <path d="m 612,368 c -18.34356,14.91069 -34.48087,27.76384 -49.81454,43.87043 -15.71918,9.91078 -24.06658,35.75092 -41.90421,37.02832 C 467.57122,428.45501 403.24638,439.4414 362.39281,479.21766 325.9182,511.55586 307.73145,561.34283 310.68,609.6 c -0.2187,27.80007 -0.4615,55.59993 -0.68,83.4 -38.00555,-27.90503 -72.96708,-59.80633 -110,-89 -7.44222,-14.92914 -1.28169,-34.16253 -3.11813,-50.77906 -1.20891,-11.50375 -1.04162,-21.41743 12.84237,-15.39026 C 244.24988,541.34594 278.39956,548.72146 313,551 274.02181,526.33991 235.84515,500.29712 198,474 196.00963,428.34084 229.8369,385.80586 272.77998,372.51877 282.13736,368.78218 291.98895,367.32347 302,368 c 0.0191,25.08479 -0.0381,51.49349 0.0285,75.75356 23.47545,-36.57652 52.93279,-71.51576 93.24665,-90.0914 63.42927,-30.96295 141.0793,-25.81407 203.0677,6.14335 4.67321,2.52288 9.23786,5.24877 13.65715,8.19449 z" fill="#fc8a07"/>
    <path d="m 1015,701 c -12.43,61.82 -49.03,117.97 -100,155 -1.75,1.34 -3.51,2.68 -5.31,4.06 -54.72,37.89 -118.74,53.37 -184.64,43.26 C 667.23,892.46 617.77,864.17 577,822 c -1.34,-1.38 -2.68,-2.76 -4.06,-4.19 -0.97,-1.26 -1.94,-2.51 -2.94,-3.81 1.48,-7.4 6.13,-11.31 11,-17 3.35,-4.32 6.68,-8.66 10,-13 5.9,-7.44 11.9,-14.8 17.89,-22.16 5.22,-6.44 10.39,-12.92 15.49,-19.46 1.19,-1.45 2.39,-2.89 3.62,-4.38 0.66,0 1.32,0 2,0 0.57,0.86 0.57,0.86 3.44,5.19 22.46,33.54 58.52,59.77 98.45,68.03 47.34,8.39 89.83,-0.47 130.11,-27.22 26.69,-21.2 44.52,-46.33 57,-78 73.65,-5.16 73.65,-5.16 96,-5 z" fill="#f87b02"/>
    <path d="m 547,491 c 3.13,3.13 6.25,6.26 9.36,9.4 1.64,1.64 3.27,3.28 4.95,4.98 1.63,1.63 3.25,3.27 4.93,4.96 2.77,2.71 5.59,5.38 8.52,7.92 7.46,6.59 14.33,13.8 21.33,20.87 5.8,5.84 11.64,11.53 17.91,16.87 0.99,0.99 1.98,1.98 3,3 0.5,0.16 0.5,0.16 3,1 -1,5 -1,5 -3.75,11.75 -18.37,46.64 -16.09,98.16 2.57,144.31 2.03,4.59 4.4,9.03 6.8,13.44 1.12,2.14 2.23,4.29 3.38,6.5 -2.66,5.32 -6.23,9.38 -10,14 -2.17,2.67 -4.33,5.33 -6.5,8 -1.12,1.38 -2.24,2.76 -3.4,4.18 -11.21,13.81 -22.13,27.84 -33.03,41.89 -2.34,2.99 -4.7,5.97 -7.07,8.93 -25.94,-34.49 -44.92,-70.21 -56,-112 -0.72,-2.66 -1.44,-5.32 -2.19,-8.06 -7.69,-37.91 -6.8,-77.17 1.19,-114.94 0.16,-0.16 0.16,-0.16 1,-1 0.25,-1.69 0.5,-3.37 0.76,-5.11 1.38,-7.67 3.61,-14.7 6.12,-22.08 0.86,-2.57 1.72,-5.14 2.61,-7.79 6.29,-17.6 14.7,-35.11 24.51,-51.02 z" fill="#e76a01"/>
    <path d="m 302,368 v 76 l 0.0285,0.0759 L 302,445 c 0.3,1.41 0.6,2.83 0.91,4.28 1.09,5.72 1.83,11.39 2.49,17.17 1.84,15.75 4,31.44 6.17,47.14 4.1,30.06 4.29017,33.22943 5.16993,38.95976 L 316.25355,550 c 1,3 0.74645,3 -0.50355,7.38 -4.66,17.64 -5.21,35.16 -5.26,53.3 -0.01,1.18 -0.01,1.18 -0.06,7.17 -0.05,7.49 -0.08,14.97 -0.12,22.46 -0.03,5.11 -0.07,10.22 -0.1,15.32 -0.09,12.46 -0.15,24.91 -0.21,37.37 -5.84,-3.51 -10.74,-7.66 -16,-12 -1.12,-0.88 -1.12,-0.88 -6.81,-5.31 -7.23,-5.72 -14.21,-11.68 -21.19,-17.69 -3.32,-2.68 -6.65,-5.35 -10,-8 -3.67,-2.99 -7.34,-5.99 -11,-9 -0.66,-0.54 -0.66,-0.54 -3.98,-3.26 -6.8,-5.58 -13.54,-11.19 -20.21,-16.93 -6.79,-5.8 -13.77,-11.31 -20.81,-16.81 -3,-3 -3,-3 -3.34,-9.31 0.02,-2.7 0.03,-5.41 0.05,-8.2 0.01,-2.92 0.02,-5.85 0.03,-8.86 0.02,-3.07 0.05,-6.15 0.07,-9.32 0.02,-3.08 0.03,-6.17 0.04,-9.35 0.04,-7.65 0.09,-15.31 0.15,-22.96 1.6,0.23 1.6,0.23 9.69,1.4 8.09,1.16 16.19,2.23 24.31,3.16 8.37,0.97 16.67,2.15 25,3.44 8.46,1.23 16.91,2.43 25.38,3.62 2.26,0.33 4.53,0.65 6.87,0.99 1.08,0.15 1.08,0.15 6.59,0.93 1.97,0.28 3.95,0.56 5.98,0.85 C 306,551 306,551 313,551 c -2.08,-1.28 -4.17,-2.56 -6.31,-3.88 C 294.27,539.37 282.16,531.15 270,523 c -3.23,-2.15 -6.46,-4.29 -9.69,-6.44 -8.16,-5.44 -16.23,-11 -24.31,-16.56 -2.35,-1.57 -4.7,-3.13 -7.12,-4.75 C 200,476 200,476 198,474 c -1.68,-26.11 9.9,-50.14 26,-70 20.5,-22.24 47.53,-36 78,-36 z" fill="#f97e02"/>
    <path d="m 197,677 c 22,3 22,3 30,5 12.9,2.32 25.91,3.97 38.89,5.78 5.74,0.86 11.44,1.96 17.11,3.22 6.54,1.08 13.1,2.09 19.65,3.1 5.35,0.9 5.35,0.9 7.35,1.9 0,66.99 0,133.98 0,203 -37.29,0 -74.58,0 -113,0 0,-35.31 0,-70.62 0,-107 9.91,0 19.22,0.42 29.03,1.43 6.71,0.64 13.43,1.11 20.16,1.57 10.64,0.73 21.21,1.8 31.81,3 5.66,0.37 11.33,0.71 17,1 -11.23,-8.48 -22.53,-16.85 -34,-25 -1.89,-1.42 -3.78,-2.85 -5.72,-4.31 -9.11,-5.87 -18.54,-9.88 -28.53,-14 -3.71,-1.56 -7.43,-3.12 -11.14,-4.68 -1.63,-0.67 -3.26,-1.35 -4.94,-2.05 -4.58,-1.92 -9.13,-3.94 -13.67,-5.96 0,-21.78 0,-43.56 0,-66 z" fill="#f87b02"/>
    <path d="m 1015,701 c -12.2,60.68 -48.23,118.14 -99,154 -5.69,-2.85 -8.82,-7.22 -13,-12 -0.74,-0.83 -0.74,-0.83 -4.5,-5 -10.5,-11.67 -21,-23.33 -31.5,-35 -1.63,-1.75 -3.26,-3.51 -4.94,-5.31 C 858,793 858,793 856,788 c 0.89,-0.65 0.89,-0.65 5.38,-3.94 5.84,-4.46 11.25,-9.04 16.62,-14.06 1.61,-1.51 3.22,-3.01 4.88,-4.56 16.18,-17.17 27.5,-37.58 36.12,-59.44 73.65,-5.16 73.65,-5.16 96,-5 z" fill="#f67702"/>
    <path d="m 651.26721,387.90081 c 13.09135,24.49481 23.54668,50.27339 35.12521,75.49035 2.71404,6.4654 5.22706,13.01381 7.60758,19.60884 -25.63782,15.54204 -49.50643,35.46147 -64.47857,61.8482 -11.06606,17.19318 -1.70921,1.67554 -8.85221,15.68784 -19.27941,-16.81595 -42.42084,-39.13779 -61.10549,-56.58958 -12.61321,-12.67749 -0.42753,0.31289 -12.96441,-12.87965 15.93414,-23.41334 35.00622,-50.96539 57.51708,-68.61971 12.40404,-10.0506 24.98647,-19.96745 38.09978,-29.05299 3.02038,-1.82553 6.05043,-3.63523 9.05103,-5.4933 z" fill="#fd9a21"/>
    <path d="m 547,491 c 11.32026,11.42264 22.58736,22.89901 34.60287,33.59657 11.36908,11.25236 26.87592,25.38471 38.86869,35.97869 -3.13958,8.18711 -2.63079,6.9532 -4.60351,12.14689 -3.90214,9.9494 -7.374,20.18382 -8.67805,30.83785 -2.97197,9.29987 -13.6828,10.7027 -21.08769,14.96132 -23.70726,12.08703 -47.21892,24.55212 -70.61348,37.22882 -4.06762,1.80794 -10.16039,7.20508 -9.35465,-0.69313 C 502.42734,629.29093 506.75267,603.2349 512,578 c 2.61844,-14.43985 2.69161,-14.58521 5.6263,-21.34358 C 524.64198,533.64915 534.33264,511.46931 547,491 Z" fill="#fc8102"/>
    <path d="m 197,792 c 9.9,0 19.18,0.42 28.98,1.43 9.37,0.89 18.75,1.48 28.14,2.11 5.88,0.46 3.16044,0.39349 8.33767,0.8618 l 0.0468,0.0559 c 1.17016,4.11277 1.23828,4.21944 6.12303,15.64679 1.2,2.55 3.52246,4.74554 4.76246,7.37554 3.84,7.99 7.79,15.91 11.79,23.81 4.44,8.99 8.6,18.1 12.78,27.21 2.5,5.35 5.09,10.62 7.79,15.88 C 309,893 309,893 310,899 H 197 Z" fill="#d75e01"/>
    <path d="m 522.75034,333.08292 c 30.88314,0.41118 58.78151,15.29209 84.36953,31.43374 6.20989,4.44251 6.17773,2.50954 1.47902,6.83117 -7.59225,6.59465 -7.51047,6.61041 -16.87387,15.32384 -22.57512,19.13431 -45.52214,43.7655 -65.85958,64.9926 -7.64883,-3.61864 -7.64542,-3.55172 -13.3505,-5.39385 -18.55591,-5.99316 -35.23085,-8.20867 -58.55127,-7.06137 9.49017,-18.378 23.53225,-35.82016 34.12769,-53.54218 11.27931,-17.23494 22.87769,-35.68642 34.65898,-52.58395 z" fill="#f67802"/>
    <path d="m 523,333 c -0.51,0.8 -0.51,0.8 -3.09,4.86 -2.38,3.74 -4.76,7.48 -7.13,11.22 -7.34,11.57 -14.77,23.08 -22.27,34.54 -3.84,5.89 -7.66,11.8 -11.48,17.7 -3.96,6.11 -7.93,12.21 -11.91,18.3 -1.42,2.18 -2.84,4.36 -4.3,6.61 -2.86,4.31 -5.81,8.56 -8.82,12.77 -8.94,1.38 -8.94,1.38 -18,2 -0.99,0.16 -0.99,0.16 -6,1 -0.99,-1.59 -1.98,-3.18 -3,-4.81 -2.43,-3.76 -4.94,-7.47 -7.59,-11.08 -5.2,-7.21 -10.12,-14.58 -15.03,-21.99 -1.95,-2.92 -3.89,-5.85 -5.84,-8.78 -0.47,-0.71 -0.47,-0.71 -2.85,-4.3 -4.74,-7.12 -9.52,-14.22 -14.3,-21.31 C 379,366 379,366 378,363 c 46.17,-26.17 92,-37.19 145,-30 z" fill="#fc971c"/>
    <path d="m 773,839 c 3.67,1.26 7.31,2.61 10.94,4 1.06,0.41 1.06,0.41 6.43,2.46 2.19,0.84 4.37,1.68 6.63,2.54 4.19,1.57 8.37,3.13 12.56,4.69 6.43,2.41 12.82,4.87 19.19,7.43 5.72,2.27 11.43,4.37 17.25,6.38 21.68,7.51 21.68,7.51 30,12.5 -37.79,28.34 -99.04,30.82 -143.69,25.44 -15.63,-2.37 -31.58,-5.55 -46.31,-11.44 -0.16,-0.5 -0.16,-0.5 -1,-3 2.31,-0.99 4.62,-1.98 7,-3 3.36,-2.29 6.69,-4.63 10,-7 4,-2.67 8,-5.34 12,-8 2.05,-1.37 4.09,-2.74 6.2,-4.16 6.92,-4.63 13.86,-9.23 20.8,-13.84 2.33,-1.57 4.66,-3.14 7.07,-4.76 1.1,-0.73 1.1,-0.73 6.68,-4.43 2,-1.33 3.99,-2.67 6.05,-4.04 C 766,838 766,838 773,839 Z" fill="#fd9315"/>
    <path d="m 773.50122,350.77295 c 39.16668,0.0699 83.8766,-1.50532 123.04321,-1.40036 -11.39025,23.3236 -26.65161,44.44958 -39.16693,67.13137 -4.63776,9.45047 -12.89769,21.40523 -18.24668,30.5164 -10.10753,-5.95671 -18.73712,-14.05262 -26.21536,-23.02788 -20.365,-22.18517 -40.91998,-44.20741 -60.88576,-66.74864 -1.85727,-2.30741 -7.64967,-4.87808 -1.74355,-4.78048 7.67834,-1.17018 15.44892,-1.72012 23.21507,-1.69041 z" fill="#fd9315"/>
    <path d="m 309,697 c 0.33,0 0.66,0 1,0 0,65.34 0,130.68 0,198 -8.74,-8.74 -13.65,-25.62 -18.94,-36.81 C 283.22,841.61 275.23,825.1 267.15,808.64 264,802 264,802 263,798 c 10.71,-0.1 21.31,0.29 32,1 -15.45,-11.65 -31.04,-23.05 -47,-34 3.16,-6.32 8.2,-10.85 13,-16 1.73,-1.9 3.46,-3.79 5.25,-5.75 5.71,-6.2 11.47,-12.35 17.24,-18.49 2.79,-2.99 5.53,-6.02 8.26,-9.07 4.91,-5.42 10.08,-10.52 15.25,-15.69 0.66,-0.99 1.32,-1.98 2,-3 z" fill="#fc981d"/>
    <path d="m 263,798 c 15.68,0 31.35,1.02 47,2 0,31.35 0,62.7 0,95 -8.74,-8.74 -13.65,-25.62 -18.94,-36.81 C 283.22,841.61 275.23,825.1 267.15,808.64 264,802 264,802 263,798 Z" fill="#f17f07"/>
    <path d="m 927,597 2,1 v 6 l 5,1 c 2.98,3.95 2.98,3.95 6.19,9.12 1.14,1.83 2.29,3.65 3.47,5.53 1.1,1.76 2.2,3.53 3.34,5.35 0.86,1.28 0.86,1.28 5.19,7.75 7.23,10.9 14.71415,23.03849 21.39415,34.28849 C 967.88642,670.39962 964.98,672.55 959.94,675.5 c -8.71,5.15 -17.28,10.46 -25.8,15.91 -3.66,2.29 -7.39,4.45 -11.14,6.59 0.89,-8.03 2.38,-15.54 4.06,-23.44 4.4,-23.12 4.29,-46.3 0.94,-69.56 z" fill="#fb9115"/>
  </g>

  <!-- title -->
  <text class="title" fill="#0f172a" x="74" y="28" font-size="17" font-weight="bold">RSigma</text>
  <text class="sub" fill="#64748b" x="140" y="28" font-size="13">detection engineering loop</text>

  <!-- ===================== leader lines (under everything) ===================== -->
  <g fill="none" stroke-width="1.5">
    <path class="leader" stroke="#e2e8f0" d="M250,108 L400,108 L400,206"/>
    <path class="leader" stroke="#e2e8f0" d="M250,236 L268,236 L268,310 L272,310"/>
    <path class="leader" stroke="#e2e8f0" d="M250,364 L290,364 L290,450 L400,450 L400,414"/>
    <path class="leader" stroke="#e2e8f0" d="M730,108 L580,108 L580,206"/>
    <path class="leader" stroke="#e2e8f0" d="M730,236 L722,236 L722,310 L714,310"/>
    <path class="leader" stroke="#e2e8f0" d="M730,364 L690,364 L690,450 L580,450 L580,414"/>
  </g>

  <!-- loop <-> Hunt (bidirectional convert / reverse) -->
  <path d="M484,386 L484,470" fill="none" stroke="#94a3b8" stroke-dasharray="4 4" marker-end="url(#arrowg)"/>
  <path d="M496,470 L496,386" fill="none" stroke="#94a3b8" stroke-dasharray="4 4" marker-end="url(#arrowg)"/>
  <text class="annot" fill="#64748b" x="478" y="431" font-size="11" text-anchor="end">convert</text>
  <text class="annot" fill="#64748b" x="502" y="431" font-size="11" text-anchor="start">reverse</text>

  <!-- ===================== lemniscate ribbon ===================== -->
  <!-- One continuous figure-8: Author > Test > Deploy crosses the center up to
       Detect > Alert > Measure, which crosses back up to Author. -->
  <g filter="url(#softBig)" stroke-linecap="round" fill="none">
    <!-- left lobe: 270-degree arc, counterclockwise (Author > Test > Deploy) -->
    <path d="M463.6,246.4 A90,90 0 1 0 463.6,373.6" stroke="url(#gradL)" stroke-width="22"/>
    <!-- handoff A: Deploy side up through the center to Detect -->
    <path d="M463.6,373.6 C488.3,348.9 491.7,271.1 516.4,246.4" stroke="url(#gradA)" stroke-width="22"/>
    <!-- right lobe: 270-degree arc, clockwise (Detect > Alert > Measure) -->
    <path d="M516.4,246.4 A90,90 0 1 1 516.4,373.6" stroke="url(#gradR)" stroke-width="22"/>
    <!-- handoff B: Measure side up through the center back to Author -->
    <path d="M516.4,373.6 C491.7,348.9 488.3,271.1 463.6,246.4" stroke="url(#gradB)" stroke-width="22"/>
  </g>

  <!-- flow chevrons (white, ride on the ribbon) -->
  <g fill="none" stroke="#ffffff" stroke-width="3.4" stroke-linecap="round" stroke-linejoin="round" opacity="0.95">
    <path d="M-3,-6 L4,0 L-3,6" transform="translate(336.4,246.4) rotate(135)"/>
    <path d="M-3,-6 L4,0 L-3,6" transform="translate(336.4,373.6) rotate(45)"/>
    <path d="M-3,-6 L4,0 L-3,6" transform="translate(643.6,246.4) rotate(45)"/>
    <path d="M-3,-6 L4,0 L-3,6" transform="translate(643.6,373.6) rotate(135)"/>
    <path d="M-3,-6 L4,0 L-3,6" transform="translate(480.5,341.8) rotate(-70)"/>
    <path d="M-3,-6 L4,0 L-3,6" transform="translate(499.5,341.8) rotate(-110)"/>
  </g>

  <!-- lobe labels -->
  <text class="lobeL" fill="#1e3a8a" x="400" y="306" font-size="19" font-weight="bold" text-anchor="middle">Engineer</text>
  <text class="sub" fill="#64748b" x="400" y="324" font-size="10.5" text-anchor="middle">detection-as-code</text>
  <text class="lobeR" fill="#9a3412" x="580" y="306" font-size="19" font-weight="bold" text-anchor="middle">Operate</text>
  <text class="sub" fill="#64748b" x="580" y="324" font-size="10.5" text-anchor="middle">security operations</text>

  <!-- center badge over the crossing -->
  <rect x="452" y="296" width="76" height="28" rx="14" fill="url(#badge)" stroke="#64748b" stroke-width="1" filter="url(#soft)"/>
  <text x="490" y="315" font-size="13.5" font-weight="bold" text-anchor="middle" fill="#ffffff">RSigma</text>

  <!-- ===================== stage pills ===================== -->
  <g filter="url(#soft)">
    <rect x="352" y="208" width="96" height="24" rx="12" fill="url(#hdrBlue)"/>
    <rect x="272" y="298" width="76" height="24" rx="12" fill="url(#hdrBlue)"/>
    <rect x="354" y="388" width="92" height="24" rx="12" fill="url(#hdrBlue)"/>
    <rect x="532" y="208" width="96" height="24" rx="12" fill="url(#hdrOrange)"/>
    <rect x="628" y="292" width="86" height="36" rx="12" fill="url(#hdrOrange)"/>
    <rect x="532" y="388" width="96" height="24" rx="12" fill="url(#hdrOrange)"/>
  </g>
  <!-- pill step-number badges -->
  <g>
    <circle cx="367" cy="220" r="7.5" fill="#ffffff" opacity="0.95"/>
    <circle cx="287" cy="310" r="7.5" fill="#ffffff" opacity="0.95"/>
    <circle cx="369" cy="400" r="7.5" fill="#ffffff" opacity="0.95"/>
    <circle cx="547" cy="220" r="7.5" fill="#ffffff" opacity="0.95"/>
    <circle cx="643" cy="310" r="7.5" fill="#ffffff" opacity="0.95"/>
    <circle cx="547" cy="400" r="7.5" fill="#ffffff" opacity="0.95"/>
  </g>
  <g font-size="10" font-weight="bold" text-anchor="middle">
    <text x="367" y="223.6" fill="#1e3a8a">1</text>
    <text x="287" y="313.6" fill="#1e3a8a">2</text>
    <text x="369" y="403.6" fill="#1e3a8a">3</text>
    <text x="547" y="223.6" fill="#9a3412">4</text>
    <text x="643" y="313.6" fill="#9a3412">5</text>
    <text x="547" y="403.6" fill="#9a3412">6</text>
  </g>
  <g font-size="12" font-weight="bold" text-anchor="middle" fill="#ffffff">
    <text x="411" y="224">Author</text>
    <text x="323" y="314">Test</text>
    <text x="411" y="404">Deploy</text>
    <text x="591" y="224">Detect</text>
    <text x="683" y="307">Alert &#38;</text>
    <text x="683" y="321">Triage</text>
    <text x="591" y="404">Measure</text>
  </g>

  <!-- ===================== left callouts (engineering, blue) ===================== -->
  <g filter="url(#soft)">
    <rect class="card" fill="#ffffff" stroke="#eef2f7" stroke-width="1" x="40" y="56" width="210" height="104" rx="8"/>
    <rect class="card" fill="#ffffff" stroke="#eef2f7" stroke-width="1" x="40" y="184" width="210" height="104" rx="8"/>
    <rect class="card" fill="#ffffff" stroke="#eef2f7" stroke-width="1" x="40" y="312" width="210" height="104" rx="8"/>
  </g>
  <path d="M40,64 a8,8 0 0 1 8,-8 h194 a8,8 0 0 1 8,8 v18 h-210 Z" fill="url(#hdrBlue)"/>
  <path d="M40,192 a8,8 0 0 1 8,-8 h194 a8,8 0 0 1 8,8 v18 h-210 Z" fill="url(#hdrBlue)"/>
  <path d="M40,320 a8,8 0 0 1 8,-8 h194 a8,8 0 0 1 8,8 v18 h-210 Z" fill="url(#hdrBlue)"/>
  <text x="145" y="74" font-size="12.5" font-weight="bold" text-anchor="middle" fill="#ffffff">Author</text>
  <text class="ink" fill="#374151" x="52" y="102" font-size="10.5">&#8226; rule draft: rules from exemplar logs</text>
  <text class="ink" fill="#374151" x="52" y="118" font-size="10.5">&#8226; rule reverse: Lucene query &#8594; Sigma</text>
  <text class="ink" fill="#374151" x="52" y="134" font-size="10.5">&#8226; rule lint: 85 checks &#183; --fix</text>
  <text class="muted" fill="#6b7280" x="52" y="150" font-size="10.5">&#8226; rule doc &#183; LSP &#183; MCP for AI agents</text>

  <text x="145" y="202" font-size="12.5" font-weight="bold" text-anchor="middle" fill="#ffffff">Test</text>
  <text class="ink" fill="#374151" x="52" y="230" font-size="10.5">&#8226; engine explain: why (no) match</text>
  <text class="ink" fill="#374151" x="52" y="246" font-size="10.5">&#8226; rule backtest: corpus regression</text>
  <text class="ink" fill="#374151" x="52" y="262" font-size="10.5">&#8226; pipeline diff: transform preview</text>
  <text class="muted" fill="#6b7280" x="52" y="278" font-size="10.5">&#8226; engine eval: one-shot evaluation</text>

  <text x="145" y="330" font-size="12.5" font-weight="bold" text-anchor="middle" fill="#ffffff">Deploy</text>
  <text class="ink" fill="#374151" x="52" y="358" font-size="10.5">&#8226; rsigma-action: PR gate in CI</text>
  <text class="ink" fill="#374151" x="52" y="374" font-size="10.5">&#8226; rsigma config: layered defaults</text>
  <text class="ink" fill="#374151" x="52" y="390" font-size="10.5">&#8226; hot-reload: rules + pipelines</text>
  <text class="muted" fill="#6b7280" x="52" y="406" font-size="10.5">&#8226; Docker &#183; signed release binaries</text>

  <!-- ===================== right callouts (operations, orange) ===================== -->
  <g filter="url(#soft)">
    <rect class="card" fill="#ffffff" stroke="#eef2f7" stroke-width="1" x="730" y="56" width="210" height="104" rx="8"/>
    <rect class="card" fill="#ffffff" stroke="#eef2f7" stroke-width="1" x="730" y="184" width="210" height="104" rx="8"/>
    <rect class="card" fill="#ffffff" stroke="#eef2f7" stroke-width="1" x="730" y="312" width="210" height="104" rx="8"/>
  </g>
  <path d="M730,64 a8,8 0 0 1 8,-8 h194 a8,8 0 0 1 8,8 v18 h-210 Z" fill="url(#hdrOrange)"/>
  <path d="M730,192 a8,8 0 0 1 8,-8 h194 a8,8 0 0 1 8,8 v18 h-210 Z" fill="url(#hdrOrange)"/>
  <path d="M730,320 a8,8 0 0 1 8,-8 h194 a8,8 0 0 1 8,8 v18 h-210 Z" fill="url(#hdrOrange)"/>
  <text x="835" y="74" font-size="12.5" font-weight="bold" text-anchor="middle" fill="#ffffff">Detect</text>
  <text class="ink" fill="#374151" x="742" y="102" font-size="10.5">&#8226; engine daemon: streaming &#183; RBAC API</text>
  <text class="ink" fill="#374151" x="742" y="118" font-size="10.5">&#8226; correlation: windows &#183; chains</text>
  <text class="ink" fill="#374151" x="742" y="134" font-size="10.5">&#8226; JSON &#183; syslog &#183; CEF &#183; EVTX &#183; OTLP</text>
  <text class="muted" fill="#6b7280" x="742" y="150" font-size="10.5">&#8226; schema routing &#183; discovery &#183; cloud</text>

  <text x="835" y="202" font-size="12.5" font-weight="bold" text-anchor="middle" fill="#ffffff">Alert &#38; Triage</text>
  <text class="ink" fill="#374151" x="742" y="230" font-size="10.5">&#8226; enrichment: GeoIP &#183; intel &#183; asset</text>
  <text class="ink" fill="#374151" x="742" y="246" font-size="10.5">&#8226; risk-based alerting: entity score</text>
  <text class="ink" fill="#374151" x="742" y="262" font-size="10.5">&#8226; dedup &#183; silence &#183; inhibit &#183; group</text>
  <text class="muted" fill="#6b7280" x="742" y="278" font-size="10.5">&#8226; webhooks: Slack &#183; PagerDuty &#183; ...</text>

  <text x="835" y="330" font-size="12.5" font-weight="bold" text-anchor="middle" fill="#ffffff">Measure</text>
  <text class="ink" fill="#374151" x="742" y="358" font-size="10.5">&#8226; rule coverage: ATT&#38;CK Navigator</text>
  <text class="ink" fill="#374151" x="742" y="374" font-size="10.5">&#8226; rule visibility: DeTT&#38;CT export</text>
  <text class="ink" fill="#374151" x="742" y="390" font-size="10.5">&#8226; field observability: gap signals</text>
  <text class="muted" fill="#6b7280" x="742" y="406" font-size="10.5">&#8226; scorecard &#183; FP ratio &#183; dispositions</text>

  <!-- ===================== Hunt (bottom center) ===================== -->
  <rect class="card" fill="#ffffff" stroke="#eef2f7" stroke-width="1" x="380" y="474" width="220" height="100" rx="8" filter="url(#soft)"/>
  <path d="M380,482 a8,8 0 0 1 8,-8 h204 a8,8 0 0 1 8,8 v18 h-220 Z" fill="url(#hdrSlate)"/>
  <text x="490" y="492" font-size="12.5" font-weight="bold" text-anchor="middle" fill="#ffffff">Hunt</text>
  <text class="ink" fill="#374151" x="392" y="520" font-size="10.5">&#8226; backend convert: PostgreSQL SQL</text>
  <text class="ink" fill="#374151" x="392" y="536" font-size="10.5">&#8226; sigma-cli delegation: Splunk &#183; 30+</text>
  <text class="ink" fill="#374151" x="392" y="552" font-size="10.5">&#8226; rule fields: mapping catalog</text>
  <text class="muted" fill="#6b7280" x="392" y="568" font-size="10.5">findings feed new rules</text>

</svg>
