<?xml version="1.0" encoding="UTF-8"?>
<svg xmlns="http://www.w3.org/2000/svg" width="1035" height="1028" viewBox="82 76 1035 1028" role="img" aria-label="RSigma">
  <title>RSigma</title>
  <style>
    /* The mark keeps its dark outline (the orange facets carry it on any
       background); only the wordmark flips to a light tint on dark backgrounds
       so it stays readable. */
    @media (prefers-color-scheme: dark) { .word { fill: #e2e8f0; } }
  </style>
  <g transform="translate(-53.914588,-194.29212)">
    <path class="mark" fill="#000000" d="m 503.00834,290.95228 c -57.49956,-2.46454 -138.55026,12.01552 -171.38477,59.10351 2.29383,-35.9158 -0.41701,0.38897 2.48633,-36.89844 -117.62286,-2.03537 -169.69952,68.42747 -175.84961,145.39063 -1.67088,145.57877 1.71417,332.42683 1.30859,478.04687 62.43692,0.3565 101.36916,0.17438 189.94336,-0.48046 1.74827,-77.94607 1.37086,-164.2025 1.94727,-242.2168 3.85305,-49.44488 -9.49404,-102.58414 12.47656,-149.08984 22.35269,-49.98775 81.39587,-75.36592 133.61719,-61.1543 -9.76824,20.78688 -23.75321,66.95388 -28.41602,101.82422 -26.43999,132.40598 44.3083,280.96012 170.00196,334.61328 120.68314,59.72806 279.77312,20.0508 359.14062,-88.5625 78.10798,-99.88112 83.06328,-257.97358 -6.37695,-352.46094 55.41833,4.72306 79.85913,-23.89125 116.58793,-70.46289 17.5189,-27.92116 68.8543,-96.89968 22.9296,-96.22461 -118.8604,0.25355 -237.73262,-0.35135 -356.58589,0.56836 -46.76849,0.92679 -72.91902,4.82689 -124.75391,24.9668 -33.66926,-21.53007 -82.46091,-42.28091 -124.08007,-44.91602 -7.04373,-0.99805 -14.77797,-1.6948 -22.99219,-2.04687 z m 268.76172,211.02148 c 7.37406,0.30281 14.80047,1.30539 22.23047,3.02539 2.64,0.56 5.28,1.11141 8,1.69141 18.01,5.2 33.85,15.15859 48,27.30859 1.71,1.46 3.41945,2.93141 5.18945,4.44141 23.94,22.69 36.77055,54.25859 40.81055,86.55859 0.12,4.75 0.17945,9.5 0.18945,14.25 0.01,2.48 0.0291,4.96149 0.0391,7.52149 -1.22,38.27 -18.32851,73.57851 -45.22851,100.22851 -27.28,23.45 -60.23,34.3 -96,32 -35.95,-6.32 -65.9111,-23.49 -88.1211,-52.75 -23.18,-34.47 -32.58976,-74.3989 -24.75976,-115.6289 9.05,-39.65001 31.91,-71.04055 66,-92.81055 19.875,-11.34 41.5282,-16.74438 63.65039,-15.83594 z"/>
    <path fill="#fb8002" d="m 801.375,349.77295 h 9.52 c 8.59,0 17.17,0.01 25.75,0.02 8.98,0.02 17.96,0.02 26.94,0.02 17,0.01 33.99,0.02 50.98,0.04 19.35,0.03 38.7,0.04 58.06,0.05 39.79,0.02 77.5203,2.06286 117.3103,2.11286 l 0.047,0.034 0.013,-0.0468 c -0.65,1.98 -1.32,3.96 -2,6 -18.99,35.11 -41.04,71.04 -81,84 -18.46,4.41 -36.27,4.6 -55.2,4.61 -1.62,0 -1.62,0 -9.8,0.05 -8.53,0.04 -17.05,0.06 -25.58,0.08 -8.73,0.01 -17.46,0.06 -26.19,0.1 -17.07,0.07 -34.15,0.12 -51.23,0.16 4.48,1.76 8.96,3.52 13.44,5.29 2.49,0.98 4.99,1.96 7.55,2.97 5.34,2.09 10.71,4.11 16.08,6.11 6.12,2.32 11.98,4.91 17.93,7.63 3.79,1.6 7.58,3.18 11.38,4.75 2.09,0.87 4.19,1.74 6.34,2.64 3.96,1.64 7.92,3.28 11.88,4.9 40.27,16.81 62.8,42.59 81.4,81.71 v 2 c -6.48,2.88 -12.94,5.63 -19.52,8.26 -2.01,0.81 -4.02,1.62 -6.09,2.45 -4.18,1.68 -8.36,3.35 -12.54,5.03 -35.32,14.21 -35.32,14.21 -36.85,17.26 1.53,0.1 3.05,0.21 4.62,0.32 7,0.74 13.69,2.08 20.57,3.55 10.25,2.17 20.51,4.22 30.81,6.13 22.94,4.48 22.94,4.48 33,7 0.84,6.67 1.11,12.8 1.07,19.5 -0.01,1.97 -0.02,3.94 -0.03,5.97 -0.01,0.74 -0.01,0.74 -0.04,4.53 -1.76,0.81 -3.53,1.62 -5.35,2.45 -41.29,19.06 -41.29,19.06 -58.47,30.2 -6.35,4.11 -12.79,8.07 -19.24,12.03 -2.22,1.37 -4.43,2.73 -6.72,4.14 -5.21,3.18 -5.21,3.18 -7.22,4.18 0.9,-8.04 2.39,-15.55 4.07,-23.44 6.09,-32.03 3.72,-62.67 -6.07,-93.56 -0.66,-2.17 -1.31,-4.33 -2,-6.57 -15.04,-40.91 -45.03,-74.88 -84.18,-94.06 -39.03,-18.01 -82.3,-19.94 -122.82,-5.37 -19.1,8.05 -35.4,18.27 -51,32 -1.89,1.65 -3.79,3.3 -5.74,5 -21.2,20.18 -37.32,47.53 -44.26,76 l -3,9 c -9.59,49.8 -2.47,99.02 23,143 2.55,3.75 5.2,7.44 8,11 1.37,1.75 2.73,3.5 4.13,5.31 30.06,35.06 68.6,53.03 113.87,58.69 47.69,0.99 89.76,-15.37 124.57,-48.19 16.71,-17.68 28.52,-38.2 37.43,-60.81 73.66,-5.17 73.66,-5.17 96,-5 -12.42,61.82 -49.02,117.96 -100,155 -0.87,0.67 -0.87,0.67 -5.31,4.06 -54.72,37.88 -118.74,53.36 -184.63,43.26 -73.78,-13.86 -133.32,-56.08 -175.62,-117.39 -16.88,-26.57 -28.4,-54.64 -36.44,-84.93 -0.72,-2.66 -1.44,-5.32 -2.18,-8.07 -7.69,-37.91 -6.8,-77.16 1.18,-114.93 0.34,-0.33 0.66,-0.66 1,-1 0.26,-1.69 0.51,-3.38 0.76,-5.12 1.39,-7.67 3.62,-14.69 6.12,-22.07 0.86,-2.57 1.73,-5.14 2.62,-7.79 9.56,-26.76 23.51,-52.29 40.5,-75.02 1.63,-2.19 3.26,-4.38 4.94,-6.63 5.09,-6.41 10.48,-12.39 16.06,-18.37 l 5,-6 h 2 c 0.34,-0.66 0.34,-0.66 2,-4 3.27,-3.08 6.62,-6.06 10,-9 1.08,-0.95 1.08,-0.95 6.5,-5.75 41.2,-34.34 91.26,-57.91 144.5,-65.25 2.18,-0.35 4.36,-0.71 6.61,-1.07 13.6,-1.35 27.12,-1.19 40.77,-1.16 z"/>
    <path fill="#fc8a07" d="m 612,368 c -18.34356,14.91069 -34.48087,27.76384 -49.81454,43.87043 -15.71918,9.91078 -24.06658,35.75092 -41.90421,37.02832 C 467.57122,428.45501 403.24638,439.4414 362.39281,479.21766 325.9182,511.55586 307.73145,561.34283 310.68,609.6 c -0.2187,27.80007 -0.4615,55.59993 -0.68,83.4 -38.00555,-27.90503 -72.96708,-59.80633 -110,-89 -7.44222,-14.92914 -1.28169,-34.16253 -3.11813,-50.77906 -1.20891,-11.50375 -1.04162,-21.41743 12.84237,-15.39026 C 244.24988,541.34594 278.39956,548.72146 313,551 274.02181,526.33991 235.84515,500.29712 198,474 196.00963,428.34084 229.8369,385.80586 272.77998,372.51877 282.13736,368.78218 291.98895,367.32347 302,368 c 0.0191,25.08479 -0.0381,51.49349 0.0285,75.75356 23.47545,-36.57652 52.93279,-71.51576 93.24665,-90.0914 63.42927,-30.96295 141.0793,-25.81407 203.0677,6.14335 4.67321,2.52288 9.23786,5.24877 13.65715,8.19449 z"/>
    <path fill="#f87b02" d="m 1015,701 c -12.43,61.82 -49.03,117.97 -100,155 -1.75,1.34 -3.51,2.68 -5.31,4.06 -54.72,37.89 -118.74,53.37 -184.64,43.26 C 667.23,892.46 617.77,864.17 577,822 c -1.34,-1.38 -2.68,-2.76 -4.06,-4.19 -0.97,-1.26 -1.94,-2.51 -2.94,-3.81 1.48,-7.4 6.13,-11.31 11,-17 3.35,-4.32 6.68,-8.66 10,-13 5.9,-7.44 11.9,-14.8 17.89,-22.16 5.22,-6.44 10.39,-12.92 15.49,-19.46 1.19,-1.45 2.39,-2.89 3.62,-4.38 0.66,0 1.32,0 2,0 0.57,0.86 0.57,0.86 3.44,5.19 22.46,33.54 58.52,59.77 98.45,68.03 47.34,8.39 89.83,-0.47 130.11,-27.22 26.69,-21.2 44.52,-46.33 57,-78 73.65,-5.16 73.65,-5.16 96,-5 z"/>
    <path fill="#e76a01" d="m 547,491 c 3.13,3.13 6.25,6.26 9.36,9.4 1.64,1.64 3.27,3.28 4.95,4.98 1.63,1.63 3.25,3.27 4.93,4.96 2.77,2.71 5.59,5.38 8.52,7.92 7.46,6.59 14.33,13.8 21.33,20.87 5.8,5.84 11.64,11.53 17.91,16.87 0.99,0.99 1.98,1.98 3,3 0.5,0.16 0.5,0.16 3,1 -1,5 -1,5 -3.75,11.75 -18.37,46.64 -16.09,98.16 2.57,144.31 2.03,4.59 4.4,9.03 6.8,13.44 1.12,2.14 2.23,4.29 3.38,6.5 -2.66,5.32 -6.23,9.38 -10,14 -2.17,2.67 -4.33,5.33 -6.5,8 -1.12,1.38 -2.24,2.76 -3.4,4.18 -11.21,13.81 -22.13,27.84 -33.03,41.89 -2.34,2.99 -4.7,5.97 -7.07,8.93 -25.94,-34.49 -44.92,-70.21 -56,-112 -0.72,-2.66 -1.44,-5.32 -2.19,-8.06 -7.69,-37.91 -6.8,-77.17 1.19,-114.94 0.16,-0.16 0.16,-0.16 1,-1 0.25,-1.69 0.5,-3.37 0.76,-5.11 1.38,-7.67 3.61,-14.7 6.12,-22.08 0.86,-2.57 1.72,-5.14 2.61,-7.79 6.29,-17.6 14.7,-35.11 24.51,-51.02 z"/>
    <path fill="#f97e02" d="m 302,368 v 76 l 0.0285,0.0759 L 302,445 c 0.3,1.41 0.6,2.83 0.91,4.28 1.09,5.72 1.83,11.39 2.49,17.17 1.84,15.75 4,31.44 6.17,47.14 4.1,30.06 4.29017,33.22943 5.16993,38.95976 L 316.25355,550 c 1,3 0.74645,3 -0.50355,7.38 -4.66,17.64 -5.21,35.16 -5.26,53.3 -0.01,1.18 -0.01,1.18 -0.06,7.17 -0.05,7.49 -0.08,14.97 -0.12,22.46 -0.03,5.11 -0.07,10.22 -0.1,15.32 -0.09,12.46 -0.15,24.91 -0.21,37.37 -5.84,-3.51 -10.74,-7.66 -16,-12 -1.12,-0.88 -1.12,-0.88 -6.81,-5.31 -7.23,-5.72 -14.21,-11.68 -21.19,-17.69 -3.32,-2.68 -6.65,-5.35 -10,-8 -3.67,-2.99 -7.34,-5.99 -11,-9 -0.66,-0.54 -0.66,-0.54 -3.98,-3.26 -6.8,-5.58 -13.54,-11.19 -20.21,-16.93 -6.79,-5.8 -13.77,-11.31 -20.81,-16.81 -3,-3 -3,-3 -3.34,-9.31 0.02,-2.7 0.03,-5.41 0.05,-8.2 0.01,-2.92 0.02,-5.85 0.03,-8.86 0.02,-3.07 0.05,-6.15 0.07,-9.32 0.02,-3.08 0.03,-6.17 0.04,-9.35 0.04,-7.65 0.09,-15.31 0.15,-22.96 1.6,0.23 1.6,0.23 9.69,1.4 8.09,1.16 16.19,2.23 24.31,3.16 8.37,0.97 16.67,2.15 25,3.44 8.46,1.23 16.91,2.43 25.38,3.62 2.26,0.33 4.53,0.65 6.87,0.99 1.08,0.15 1.08,0.15 6.59,0.93 1.97,0.28 3.95,0.56 5.98,0.85 C 306,551 306,551 313,551 c -2.08,-1.28 -4.17,-2.56 -6.31,-3.88 C 294.27,539.37 282.16,531.15 270,523 c -3.23,-2.15 -6.46,-4.29 -9.69,-6.44 -8.16,-5.44 -16.23,-11 -24.31,-16.56 -2.35,-1.57 -4.7,-3.13 -7.12,-4.75 C 200,476 200,476 198,474 c -1.68,-26.11 9.9,-50.14 26,-70 20.5,-22.24 47.53,-36 78,-36 z"/>
    <path fill="#f87b02" d="m 197,677 c 22,3 22,3 30,5 12.9,2.32 25.91,3.97 38.89,5.78 5.74,0.86 11.44,1.96 17.11,3.22 6.54,1.08 13.1,2.09 19.65,3.1 5.35,0.9 5.35,0.9 7.35,1.9 0,66.99 0,133.98 0,203 -37.29,0 -74.58,0 -113,0 0,-35.31 0,-70.62 0,-107 9.91,0 19.22,0.42 29.03,1.43 6.71,0.64 13.43,1.11 20.16,1.57 10.64,0.73 21.21,1.8 31.81,3 5.66,0.37 11.33,0.71 17,1 -11.23,-8.48 -22.53,-16.85 -34,-25 -1.89,-1.42 -3.78,-2.85 -5.72,-4.31 -9.11,-5.87 -18.54,-9.88 -28.53,-14 -3.71,-1.56 -7.43,-3.12 -11.14,-4.68 -1.63,-0.67 -3.26,-1.35 -4.94,-2.05 -4.58,-1.92 -9.13,-3.94 -13.67,-5.96 0,-21.78 0,-43.56 0,-66 z"/>
    <path fill="#f67702" d="m 1015,701 c -12.2,60.68 -48.23,118.14 -99,154 -5.69,-2.85 -8.82,-7.22 -13,-12 -0.74,-0.83 -0.74,-0.83 -4.5,-5 -10.5,-11.67 -21,-23.33 -31.5,-35 -1.63,-1.75 -3.26,-3.51 -4.94,-5.31 C 858,793 858,793 856,788 c 0.89,-0.65 0.89,-0.65 5.38,-3.94 5.84,-4.46 11.25,-9.04 16.62,-14.06 1.61,-1.51 3.22,-3.01 4.88,-4.56 16.18,-17.17 27.5,-37.58 36.12,-59.44 73.65,-5.16 73.65,-5.16 96,-5 z"/>
    <path fill="#fd9a21" d="m 651.26721,387.90081 c 13.09135,24.49481 23.54668,50.27339 35.12521,75.49035 2.71404,6.4654 5.22706,13.01381 7.60758,19.60884 -25.63782,15.54204 -49.50643,35.46147 -64.47857,61.8482 -11.06606,17.19318 -1.70921,1.67554 -8.85221,15.68784 -19.27941,-16.81595 -42.42084,-39.13779 -61.10549,-56.58958 -12.61321,-12.67749 -0.42753,0.31289 -12.96441,-12.87965 15.93414,-23.41334 35.00622,-50.96539 57.51708,-68.61971 12.40404,-10.0506 24.98647,-19.96745 38.09978,-29.05299 3.02038,-1.82553 6.05043,-3.63523 9.05103,-5.4933 z"/>
    <path fill="#fc8102" d="m 547,491 c 11.32026,11.42264 22.58736,22.89901 34.60287,33.59657 11.36908,11.25236 26.87592,25.38471 38.86869,35.97869 -3.13958,8.18711 -2.63079,6.9532 -4.60351,12.14689 -3.90214,9.9494 -7.374,20.18382 -8.67805,30.83785 -2.97197,9.29987 -13.6828,10.7027 -21.08769,14.96132 -23.70726,12.08703 -47.21892,24.55212 -70.61348,37.22882 -4.06762,1.80794 -10.16039,7.20508 -9.35465,-0.69313 C 502.42734,629.29093 506.75267,603.2349 512,578 c 2.61844,-14.43985 2.69161,-14.58521 5.6263,-21.34358 C 524.64198,533.64915 534.33264,511.46931 547,491 Z"/>
    <path fill="#d75e01" d="m 197,792 c 9.9,0 19.18,0.42 28.98,1.43 9.37,0.89 18.75,1.48 28.14,2.11 5.88,0.46 3.16044,0.39349 8.33767,0.8618 l 0.0468,0.0559 c 1.17016,4.11277 1.23828,4.21944 6.12303,15.64679 1.2,2.55 3.52246,4.74554 4.76246,7.37554 3.84,7.99 7.79,15.91 11.79,23.81 4.44,8.99 8.6,18.1 12.78,27.21 2.5,5.35 5.09,10.62 7.79,15.88 C 309,893 309,893 310,899 H 197 Z"/>
    <path fill="#f67802" d="m 522.75034,333.08292 c 30.88314,0.41118 58.78151,15.29209 84.36953,31.43374 6.20989,4.44251 6.17773,2.50954 1.47902,6.83117 -7.59225,6.59465 -7.51047,6.61041 -16.87387,15.32384 -22.57512,19.13431 -45.52214,43.7655 -65.85958,64.9926 -7.64883,-3.61864 -7.64542,-3.55172 -13.3505,-5.39385 -18.55591,-5.99316 -35.23085,-8.20867 -58.55127,-7.06137 9.49017,-18.378 23.53225,-35.82016 34.12769,-53.54218 11.27931,-17.23494 22.87769,-35.68642 34.65898,-52.58395 z"/>
    <path fill="#fc971c" d="m 523,333 c -0.51,0.8 -0.51,0.8 -3.09,4.86 -2.38,3.74 -4.76,7.48 -7.13,11.22 -7.34,11.57 -14.77,23.08 -22.27,34.54 -3.84,5.89 -7.66,11.8 -11.48,17.7 -3.96,6.11 -7.93,12.21 -11.91,18.3 -1.42,2.18 -2.84,4.36 -4.3,6.61 -2.86,4.31 -5.81,8.56 -8.82,12.77 -8.94,1.38 -8.94,1.38 -18,2 -0.99,0.16 -0.99,0.16 -6,1 -0.99,-1.59 -1.98,-3.18 -3,-4.81 -2.43,-3.76 -4.94,-7.47 -7.59,-11.08 -5.2,-7.21 -10.12,-14.58 -15.03,-21.99 -1.95,-2.92 -3.89,-5.85 -5.84,-8.78 -0.47,-0.71 -0.47,-0.71 -2.85,-4.3 -4.74,-7.12 -9.52,-14.22 -14.3,-21.31 C 379,366 379,366 378,363 c 46.17,-26.17 92,-37.19 145,-30 z"/>
    <path fill="#fd9315" d="m 773,839 c 3.67,1.26 7.31,2.61 10.94,4 1.06,0.41 1.06,0.41 6.43,2.46 2.19,0.84 4.37,1.68 6.63,2.54 4.19,1.57 8.37,3.13 12.56,4.69 6.43,2.41 12.82,4.87 19.19,7.43 5.72,2.27 11.43,4.37 17.25,6.38 21.68,7.51 21.68,7.51 30,12.5 -37.79,28.34 -99.04,30.82 -143.69,25.44 -15.63,-2.37 -31.58,-5.55 -46.31,-11.44 -0.16,-0.5 -0.16,-0.5 -1,-3 2.31,-0.99 4.62,-1.98 7,-3 3.36,-2.29 6.69,-4.63 10,-7 4,-2.67 8,-5.34 12,-8 2.05,-1.37 4.09,-2.74 6.2,-4.16 6.92,-4.63 13.86,-9.23 20.8,-13.84 2.33,-1.57 4.66,-3.14 7.07,-4.76 1.1,-0.73 1.1,-0.73 6.68,-4.43 2,-1.33 3.99,-2.67 6.05,-4.04 C 766,838 766,838 773,839 Z"/>
    <path fill="#fd9315" d="m 773.50122,350.77295 c 39.16668,0.0699 83.8766,-1.50532 123.04321,-1.40036 -11.39025,23.3236 -26.65161,44.44958 -39.16693,67.13137 -4.63776,9.45047 -12.89769,21.40523 -18.24668,30.5164 -10.10753,-5.95671 -18.73712,-14.05262 -26.21536,-23.02788 -20.365,-22.18517 -40.91998,-44.20741 -60.88576,-66.74864 -1.85727,-2.30741 -7.64967,-4.87808 -1.74355,-4.78048 7.67834,-1.17018 15.44892,-1.72012 23.21507,-1.69041 z"/>
    <path fill="#fc981d" d="m 309,697 c 0.33,0 0.66,0 1,0 0,65.34 0,130.68 0,198 -8.74,-8.74 -13.65,-25.62 -18.94,-36.81 C 283.22,841.61 275.23,825.1 267.15,808.64 264,802 264,802 263,798 c 10.71,-0.1 21.31,0.29 32,1 -15.45,-11.65 -31.04,-23.05 -47,-34 3.16,-6.32 8.2,-10.85 13,-16 1.73,-1.9 3.46,-3.79 5.25,-5.75 5.71,-6.2 11.47,-12.35 17.24,-18.49 2.79,-2.99 5.53,-6.02 8.26,-9.07 4.91,-5.42 10.08,-10.52 15.25,-15.69 0.66,-0.99 1.32,-1.98 2,-3 z"/>
    <path fill="#f17f07" d="m 263,798 c 15.68,0 31.35,1.02 47,2 0,31.35 0,62.7 0,95 -8.74,-8.74 -13.65,-25.62 -18.94,-36.81 C 283.22,841.61 275.23,825.1 267.15,808.64 264,802 264,802 263,798 Z"/>
    <path fill="#fb9115" d="m 927,597 2,1 v 6 l 5,1 c 2.98,3.95 2.98,3.95 6.19,9.12 1.14,1.83 2.29,3.65 3.47,5.53 1.1,1.76 2.2,3.53 3.34,5.35 0.86,1.28 0.86,1.28 5.19,7.75 7.23,10.9 14.71415,23.03849 21.39415,34.28849 C 967.88642,670.39962 964.98,672.55 959.94,675.5 c -8.71,5.15 -17.28,10.46 -25.8,15.91 -3.66,2.29 -7.39,4.45 -11.14,6.59 0.89,-8.03 2.38,-15.54 4.06,-23.44 4.4,-23.12 4.29,-46.3 0.94,-69.56 z"/>
  </g>
  <path class="word" fill="#000000" d="M 141.86231,936.58026 V 886.1962 h 43.11473 q 13.53602,0 20.30403,6.016 6.76801,5.76535 6.76801,18.80003 0,13.53602 -6.76801,19.55203 -6.76801,6.016 -20.30403,6.016 z m -39.35472,-80.96544 v 178.97628 h 39.35472 v -69.93613 h 39.35472 q 14.78936,0 21.3067,6.51734 6.51734,6.51734 8.52268,20.5547 1.504,10.77869 2.256,22.55999 0.752,11.7814 4.01067,20.3041 h 39.35472 q -2.75733,-3.76 -4.26134,-9.024 -1.25333,-5.5147 -2.00533,-11.5307 -0.50134,-6.016 -0.752,-11.7814 -0.25067,-5.76532 -0.50134,-10.02666 -0.50133,-6.76801 -2.00533,-13.53602 -1.25334,-6.76801 -4.26134,-12.28268 -3.00801,-5.76534 -7.77068,-9.77601 -4.76267,-4.26134 -12.03202,-6.26668 v -0.50133 q 15.04003,-6.01601 21.55737,-17.54669 6.76801,-11.53069 6.76801,-27.32271 0,-10.27735 -3.76001,-19.05069 -3.50934,-9.02401 -10.52801,-15.79202 -6.76801,-6.76801 -16.54403,-10.52802 -9.52534,-4.01067 -21.55736,-4.01067 z m 207.80299,119.56816 h -38.10139 q -0.25066,16.54403 6.01601,28.57602 6.26668,12.032 16.79469,19.8027 10.77868,7.7707 24.56537,11.28 14.03735,3.76 28.8267,3.76 18.29869,0 32.08538,-4.2613 14.03735,-4.2613 23.31203,-11.7814 9.52535,-7.7706 14.28802,-18.2986 4.76267,-10.52806 4.76267,-22.81074 0,-15.04002 -6.51734,-24.56537 -6.26667,-9.77601 -15.04002,-15.54135 -8.77334,-5.76534 -17.79736,-8.27201 -8.77334,-2.75734 -13.78668,-3.76001 -16.79469,-4.26134 -27.32271,-7.01867 -10.27734,-2.75734 -16.29335,-5.51468 -5.76534,-2.75734 -7.77068,-6.01601 -2.00533,-3.25867 -2.00533,-8.52268 0,-5.76534 2.50667,-9.52534 2.50667,-3.76001 6.26667,-6.26668 4.01067,-2.50667 8.77335,-3.50934 4.76267,-1.00266 9.52534,-1.00266 7.26935,0 13.28535,1.25333 6.26668,1.25334 11.02935,4.26134 4.76268,3.00801 7.52001,8.27201 3.00801,5.26401 3.50934,13.28535 h 38.10139 q 0,-15.54135 -6.01601,-26.32003 -5.76534,-11.02935 -15.79202,-18.04803 -10.02668,-7.01867 -23.06137,-10.02668 -12.78402,-3.25867 -26.82137,-3.25867 -12.03202,0 -24.06403,3.25867 -12.03202,3.25867 -21.55736,10.02668 -9.52535,6.76801 -15.54136,17.04536 -5.76534,10.02668 -5.76534,23.81337 0,12.28268 4.51201,21.05602 4.76267,8.52268 12.28268,14.28802 7.52001,5.76534 17.04536,9.52535 9.52534,3.50934 19.55202,6.01601 9.77602,2.75734 19.30136,5.01334 9.52535,2.256 17.04536,5.26401 7.52001,3.008 12.03202,7.52001 4.76267,4.512 4.76267,11.78135 0,6.768 -3.50934,11.28001 -3.50934,4.26132 -8.77334,6.76802 -5.26401,2.5067 -11.28002,3.5093 -6.01601,0.752 -11.28002,0.752 -7.77067,0 -15.04002,-1.7546 -7.26934,-2.0054 -12.78401,-5.7654 -5.26401,-4.01065 -8.52268,-10.27733 -3.25867,-6.26667 -3.25867,-15.29069 z m 168.69894,-90.24012 v -29.32804 h -35.59471 v 29.32804 z m -35.59471,20.05336 v 129.59488 h 35.59471 V 904.99622 Z m 124.08001,99.01348 q -8.27201,0 -13.78668,-3.5093 -5.51467,-3.50939 -9.02401,-9.02406 -3.25867,-5.51467 -4.76268,-12.28268 -1.25333,-7.01868 -1.25333,-14.03736 0,-7.26934 1.504,-13.78668 1.75467,-6.76801 5.26401,-11.78135 3.76,-5.26401 9.02401,-8.27201 5.51467,-3.00801 13.03468,-3.00801 8.77335,0 14.53869,3.25867 5.76534,3.25868 9.27468,8.77335 3.50934,5.51467 5.01334,12.78402 1.504,7.01867 1.504,15.04002 0,7.01867 -2.00533,13.53602 -1.75467,6.26667 -5.51468,11.28001 -3.76,5.01334 -9.52534,8.02136 -5.76535,3.008 -13.28536,3.008 z m 64.17076,22.3094 V 904.99622 h -33.84005 v 17.29603 h -0.50133 q -6.51734,-11.28002 -16.29336,-16.04269 -9.52534,-4.76268 -22.30936,-4.76268 -13.53602,0 -24.06403,5.26401 -10.27735,5.26401 -17.29603,14.28802 -7.01867,8.77335 -10.77868,20.55469 -3.50934,11.53069 -3.50934,24.06404 0,13.28535 3.00801,25.31737 3.25867,11.78139 10.02668,20.80539 6.76801,8.7733 17.29602,14.0373 10.52802,5.0134 25.0667,5.0134 11.78135,0 22.30937,-4.7627 10.77868,-5.0134 16.54402,-15.2907 h 0.50133 v 17.0454 q 0.25067,13.7866 -6.76801,22.8107 -6.76801,9.024 -21.80803,9.024 -9.52534,0 -16.79469,-4.0107 -7.26934,-3.76 -9.77601,-13.7867 h -35.34405 q 0.752,11.0294 6.01601,18.8 5.51468,8.0214 13.53602,13.0347 8.27201,5.0134 18.04802,7.2694 10.02668,2.5066 19.55203,2.5066 22.30936,0 35.59472,-6.016 13.28535,-6.016 20.30402,-14.7893 7.01868,-8.5227 9.02402,-18.5494 2.256,-10.0267 2.256,-17.7973 z m 29.5787,-121.32288 v 129.59488 h 35.59471 v -75.20014 q 0,-9.52534 2.75734,-15.29069 2.75733,-6.016 6.51734,-9.02401 4.01067,-3.25867 8.02134,-4.26134 4.26134,-1.25333 6.76801,-1.25333 8.52268,0 12.78402,3.008 4.51201,2.75734 6.26668,7.52001 2.00533,4.76268 2.256,10.52802 0.25067,5.51467 0.25067,11.28001 v 72.69347 h 35.59471 v -72.19213 q 0,-6.01601 0.752,-11.78135 1.00267,-6.01601 3.50934,-10.52802 2.75734,-4.76267 7.26934,-7.52001 4.76268,-3.008 12.28269,-3.008 7.52001,0 11.78135,2.50667 4.512,2.50667 6.76801,6.76801 2.256,4.26134 2.75733,10.02668 0.50134,5.76534 0.50134,12.28268 v 73.44547 h 35.59471 v -86.73082 q 0,-12.53335 -3.50934,-21.3067 -3.50933,-9.02401 -9.77601,-14.53868 -6.26667,-5.51468 -15.04002,-8.02135 -8.77335,-2.50667 -19.05069,-2.50667 -13.53602,0 -23.5627,6.51735 -9.77601,6.51734 -15.54136,15.04002 -5.264,-12.03202 -15.54135,-16.79469 -10.02668,-4.76268 -22.30936,-4.76268 -12.78402,0 -22.8107,5.51468 -9.77602,5.51467 -16.79469,15.54135 h -0.50134 v -17.54669 z m 224.5977,39.85606 q 0.752,-12.53335 6.26667,-20.80537 5.51468,-8.27201 14.03735,-13.28535 8.52268,-5.01334 19.0507,-7.01867 10.77868,-2.25601 21.55736,-2.25601 9.77601,0 19.80269,1.50401 10.02668,1.25333 18.29869,5.264 8.27201,4.01067 13.53602,11.28002 5.26404,7.01867 5.26404,18.80002 v 67.42947 q 0,8.7733 1.0026,16.7946 1.0027,8.0214 3.5094,12.0321 h -36.09607 q -1.00267,-3.008 -1.75467,-6.016 -0.50134,-3.2587 -0.752,-6.5174 -8.52268,8.7734 -20.05336,12.2827 -11.53069,3.5093 -23.5627,3.5093 -9.27468,0 -17.29603,-2.256 -8.02134,-2.256 -14.03735,-7.0186 -6.01601,-4.7627 -9.52535,-12.0321 -3.25867,-7.2693 -3.25867,-17.29598 0,-11.02935 3.76001,-18.04803 4.01067,-7.26934 10.02668,-11.53068 6.26667,-4.26134 14.03735,-6.26668 8.02135,-2.256 16.04269,-3.50933 8.02134,-1.25334 15.79202,-2.00534 7.77068,-0.752 13.78669,-2.256 6.01601,-1.504 9.52534,-4.26134 3.50934,-3.00801 3.25867,-8.52268 0,-5.76534 -2.00533,-9.02401 -1.75467,-3.50934 -5.01334,-5.26401 -3.00801,-2.00534 -7.26935,-2.50667 -4.01067,-0.752 -8.77334,-0.752 -10.52801,0 -16.54402,4.51201 -6.01601,4.512 -7.01868,15.04002 z m 82.21877,26.32003 q -2.256,2.00534 -5.76534,3.25867 -3.25867,1.00267 -7.26934,1.75467 -3.76001,0.752 -8.02134,1.25334 -4.26134,0.50133 -8.52268,1.25333 -4.01067,0.752 -8.02135,2.00534 -3.76,1.25333 -6.76801,3.50934 -2.75733,2.00533 -4.512,5.264 -1.75467,3.25867 -1.75467,8.27201 0,4.76269 1.75467,8.02139 1.75467,3.2586 4.76267,5.264 3.008,1.7546 7.01868,2.5066 4.01067,0.752 8.27201,0.752 10.52801,0 16.29335,-3.5093 5.76535,-3.5093 8.52268,-8.272 2.75734,-5.01335 3.25867,-10.02669 0.752,-5.01334 0.752,-8.02135 z"/>
</svg>
